<svg viewBox="0 0 1012 300" xmlns="http://www.w3.org/2000/svg" xml:space="preserve" style="fill-rule:evenodd;clip-rule:evenodd;stroke-linejoin:round;stroke-miterlimit:2"><path d="M0 0h1012v300H0z"/><path d="M379.738 113.387c0 1.707.149 4.352.448 7.936-.896.427-1.963.619-3.2.576-.086-2.56-.704-4.501-1.856-5.824-1.152-1.323-2.944-1.984-5.376-1.984h-3.392v32.32c0 1.493.128 2.613.384 3.36.256.747.736 1.28 1.44 1.6.704.32 1.76.523 3.168.608.213.597.32 1.515.32 2.752a179.127 179.127 0 0 0-8.384-.192c-3.2 0-5.995.064-8.384.192 0-1.237.106-2.155.32-2.752 1.408-.085 2.474-.288 3.2-.608.725-.32 1.226-.864 1.504-1.632.277-.768.416-1.877.416-3.328v-32.32h-3.264c-1.963 0-3.478.309-4.544.928-1.067.619-1.824 1.451-2.272 2.496-.448 1.045-.843 2.507-1.184 4.384-1.408 0-2.432-.192-3.072-.576.682-3.84 1.024-7.253 1.024-10.24 2.389.128 7.829.192 16.32.192 8.618 0 14.101-.064 16.448-.192l-.064 2.304ZM407.834 147.819c.341.213.672.512.992.896.32.384.501.747.544 1.088-1.451 1.877-3.104 3.232-4.96 4.064-1.856.832-4 1.248-6.432 1.248-2.944 0-5.43-.672-7.456-2.016-2.027-1.344-3.552-3.168-4.576-5.472-1.024-2.304-1.536-4.885-1.536-7.744 0-2.773.544-5.312 1.632-7.616 1.088-2.304 2.634-4.149 4.64-5.536 2.005-1.387 4.33-2.08 6.976-2.08 3.882 0 6.773 1.205 8.672 3.616 1.898 2.411 2.997 5.621 3.296 9.632-.171.853-.491 1.579-.96 2.176-7.51 0-13.483.107-17.92.32.213 3.285 1.034 5.963 2.464 8.032 1.429 2.069 3.701 3.104 6.816 3.104 1.45 0 2.858-.32 4.224-.96a10.626 10.626 0 0 0 3.584-2.752Zm-10.752-20.096c-1.707 0-3.158.725-4.352 2.176-1.195 1.451-1.878 3.883-2.048 7.296h12.288c0-2.859-.523-5.152-1.568-6.88-1.046-1.728-2.486-2.592-4.32-2.592ZM447.77 151.979c.213.64.32 1.557.32 2.752-1.835-.128-4.16-.192-6.976-.192-1.75 0-3.862.043-6.336.128-.299.043-.726.064-1.28.064 0-1.237.106-2.155.32-2.752 1.578 0 2.709-.405 3.392-1.216.682-.811 1.024-2.261 1.024-4.352v-9.728c0-2.816-.523-4.821-1.568-6.016-1.046-1.195-2.507-1.792-4.384-1.792-1.195 0-2.347.363-3.456 1.088-1.11.725-2.016 1.899-2.72 3.52-.704 1.621-1.056 3.648-1.056 6.08v6.848c0 2.133.32 3.595.96 4.384.64.789 1.792 1.184 3.456 1.184.213.64.32 1.557.32 2.752-3.584-.128-6.123-.192-7.616-.192-3.243 0-5.782.064-7.616.192 0-1.237.106-2.155.32-2.752 1.664 0 2.816-.395 3.456-1.184.64-.789.96-2.251.96-4.384v-12.672c0-1.109-.118-1.973-.352-2.592-.235-.619-.694-1.088-1.376-1.408-.683-.32-1.707-.501-3.072-.544 0-.981.192-1.771.576-2.368 1.322-.085 2.837-.341 4.544-.768 1.706-.427 3.05-.896 4.032-1.408.938.299 1.408 1.237 1.408 2.816 0 1.365-.15 2.624-.448 3.776.085-.128.202-.352.352-.672.149-.32.352-.651.608-.992.853-1.195 2.101-2.261 3.744-3.2 1.642-.939 3.488-1.408 5.536-1.408 2.688 0 4.885.832 6.592 2.496 1.706 1.664 2.56 4.309 2.56 7.936v11.008c0 2.133.298 3.595.896 4.384.597.789 1.557 1.184 2.88 1.184ZM479.962 145.835c0 1.621.245 2.752.736 3.392.49.64 1.568.96 3.232.96 0 1.237-.128 2.219-.384 2.944-1.11.085-2.368.309-3.776.672-1.408.363-2.582.8-3.52 1.312-.555-.256-.96-.608-1.216-1.056-.256-.448-.384-1.333-.384-2.656 0-.725.074-1.472.224-2.24a271.8 271.8 0 0 1 .288-1.472 29.676 29.676 0 0 1-1.472 2.688c-.683 1.152-1.824 2.229-3.424 3.232-1.6 1.003-3.382 1.504-5.344 1.504-3.84 0-6.795-1.163-8.864-3.488-2.07-2.325-3.104-5.899-3.104-10.72 0-2.987.661-5.717 1.984-8.192 1.322-2.475 3.2-4.437 5.632-5.888 2.432-1.451 5.205-2.176 8.32-2.176 1.749 0 3.52.299 5.312.896v-7.808c0-1.109-.107-1.984-.32-2.624-.214-.64-.662-1.12-1.344-1.44-.683-.32-1.728-.48-3.136-.48 0-.981.192-1.771.576-2.368 1.066 0 2.581-.235 4.544-.704 1.962-.469 3.306-.96 4.032-1.472.938.299 1.408 1.152 1.408 2.56v34.624Zm-13.504 5.248c2.133 0 3.957-1.003 5.472-3.008 1.514-2.005 2.272-5.077 2.272-9.216v-9.024c-.811-.725-1.654-1.28-2.528-1.664-.875-.384-1.91-.576-3.104-.576-1.408 0-2.816.363-4.224 1.088-1.408.725-2.603 2.016-3.584 3.872-.982 1.856-1.472 4.363-1.472 7.52 0 2.56.384 4.661 1.152 6.304.768 1.643 1.696 2.837 2.784 3.584 1.088.747 2.165 1.12 3.232 1.12ZM512.474 147.819c.341.213.672.512.992.896.32.384.501.747.544 1.088-1.451 1.877-3.104 3.232-4.96 4.064-1.856.832-4 1.248-6.432 1.248-2.944 0-5.43-.672-7.456-2.016-2.027-1.344-3.552-3.168-4.576-5.472-1.024-2.304-1.536-4.885-1.536-7.744 0-2.773.544-5.312 1.632-7.616 1.088-2.304 2.634-4.149 4.64-5.536 2.005-1.387 4.33-2.08 6.976-2.08 3.882 0 6.773 1.205 8.672 3.616 1.898 2.411 2.997 5.621 3.296 9.632-.171.853-.491 1.579-.96 2.176-7.51 0-13.483.107-17.92.32.213 3.285 1.034 5.963 2.464 8.032 1.429 2.069 3.701 3.104 6.816 3.104 1.45 0 2.858-.32 4.224-.96a10.626 10.626 0 0 0 3.584-2.752Zm-10.752-20.096c-1.707 0-3.158.725-4.352 2.176-1.195 1.451-1.878 3.883-2.048 7.296h12.288c0-2.859-.523-5.152-1.568-6.88-1.046-1.728-2.486-2.592-4.32-2.592ZM537.946 125.227c1.621 0 3.093.512 4.416 1.536-.299 1.963-.448 4.48-.448 7.552a11.46 11.46 0 0 1-3.648.576c-.086-1.92-.395-3.232-.928-3.936-.534-.704-1.27-1.056-2.208-1.056-.768 0-1.579.416-2.432 1.248-.854.832-1.568 1.952-2.144 3.36a11.715 11.715 0 0 0-.864 4.48v6.144c0 1.835.192 3.232.576 4.192.384.96.97 1.621 1.76 1.984.789.363 1.909.587 3.36.672.213.597.32 1.515.32 2.752-1.963-.128-4.651-.192-8.064-.192-3.968 0-6.784.064-8.448.192 0-1.237.106-2.155.32-2.752 1.706-.085 2.869-.501 3.488-1.248.618-.747.928-2.187.928-4.32v-12.672c0-1.109-.118-1.973-.352-2.592-.235-.619-.694-1.088-1.376-1.408-.683-.32-1.707-.501-3.072-.544 0-.981.192-1.771.576-2.368 1.322-.085 2.837-.341 4.544-.768 1.706-.427 3.05-.896 4.032-1.408.938.299 1.408 1.237 1.408 2.816 0 1.451-.128 2.805-.384 4.064s-.406 1.995-.448 2.208l.512-1.536c.256-.768.533-1.365.832-1.792 2.176-3.456 4.757-5.184 7.744-5.184ZM553.114 117.419c-1.067 0-1.963-.363-2.688-1.088a3.573 3.573 0 0 1-1.088-2.624c0-1.109.373-2.037 1.12-2.784.746-.747 1.632-1.12 2.656-1.12 1.152 0 2.08.363 2.784 1.088.704.725 1.056 1.664 1.056 2.816 0 .981-.374 1.845-1.12 2.592-.747.747-1.654 1.12-2.72 1.12Zm-7.104 37.312c0-1.152.106-2.069.32-2.752 1.706 0 2.869-.395 3.488-1.184.618-.789.928-2.251.928-4.384v-12.672c0-1.109-.107-1.984-.32-2.624-.214-.64-.662-1.12-1.344-1.44-.683-.32-1.728-.48-3.136-.48 0-.981.192-1.771.576-2.368 1.066 0 2.581-.235 4.544-.704 1.962-.469 3.306-.96 4.032-1.472.938.299 1.408 1.152 1.408 2.56v19.2c0 2.133.277 3.595.832 4.384.554.789 1.536 1.184 2.944 1.184.213.725.32 1.643.32 2.752-2.219-.128-4.63-.192-7.232-.192-2.774 0-5.227.064-7.36.192ZM591.578 144.939c0 3.627.17 6.464.512 8.512-.384.811-1.067 1.216-2.048 1.216a595.828 595.828 0 0 0-11.456-.128c-4.523 0-8.32.043-11.392.128-.683-.683-1.024-1.536-1.024-2.56 2.645-3.669 5.749-8.021 9.312-13.056 3.562-5.035 6.09-8.704 7.584-11.008h-5.888c-1.579 0-2.806.181-3.68.544-.875.363-1.558 1.013-2.048 1.952-.491.939-.95 2.368-1.376 4.288-1.366 0-2.475-.171-3.328-.512.298-3.285.448-6.379.448-9.28 2.602.128 6.506.192 11.712.192 5.077 0 8.853-.064 11.328-.192.554.683.832 1.6.832 2.752-2.134 3.072-4.992 7.083-8.576 12.032-3.584 4.949-6.486 8.896-8.704 11.84h8.128c1.621 0 2.837-.171 3.648-.512.81-.341 1.408-1.003 1.792-1.984.384-.981.661-2.517.832-4.608 1.237 0 2.368.128 3.392.384ZM620.954 147.819c.341.213.672.512.992.896.32.384.501.747.544 1.088-1.451 1.877-3.104 3.232-4.96 4.064-1.856.832-4 1.248-6.432 1.248-2.944 0-5.43-.672-7.456-2.016-2.027-1.344-3.552-3.168-4.576-5.472-1.024-2.304-1.536-4.885-1.536-7.744 0-2.773.544-5.312 1.632-7.616 1.088-2.304 2.634-4.149 4.64-5.536 2.005-1.387 4.33-2.08 6.976-2.08 3.882 0 6.773 1.205 8.672 3.616 1.898 2.411 2.997 5.621 3.296 9.632-.171.853-.491 1.579-.96 2.176-7.51 0-13.483.107-17.92.32.213 3.285 1.034 5.963 2.464 8.032 1.429 2.069 3.701 3.104 6.816 3.104 1.45 0 2.858-.32 4.224-.96a10.626 10.626 0 0 0 3.584-2.752Zm-10.752-20.096c-1.707 0-3.158.725-4.352 2.176-1.195 1.451-1.878 3.883-2.048 7.296h12.288c0-2.859-.523-5.152-1.568-6.88-1.046-1.728-2.486-2.592-4.32-2.592ZM646.426 125.227c1.621 0 3.093.512 4.416 1.536-.299 1.963-.448 4.48-.448 7.552a11.46 11.46 0 0 1-3.648.576c-.086-1.92-.395-3.232-.928-3.936-.534-.704-1.27-1.056-2.208-1.056-.768 0-1.579.416-2.432 1.248-.854.832-1.568 1.952-2.144 3.36a11.715 11.715 0 0 0-.864 4.48v6.144c0 1.835.192 3.232.576 4.192.384.96.97 1.621 1.76 1.984.789.363 1.909.587 3.36.672.213.597.32 1.515.32 2.752-1.963-.128-4.651-.192-8.064-.192-3.968 0-6.784.064-8.448.192 0-1.237.106-2.155.32-2.752 1.706-.085 2.869-.501 3.488-1.248.618-.747.928-2.187.928-4.32v-12.672c0-1.109-.118-1.973-.352-2.592-.235-.619-.694-1.088-1.376-1.408-.683-.32-1.707-.501-3.072-.544 0-.981.192-1.771.576-2.368 1.322-.085 2.837-.341 4.544-.768 1.706-.427 3.05-.896 4.032-1.408.938.299 1.408 1.237 1.408 2.816 0 1.451-.128 2.805-.384 4.064s-.406 1.995-.448 2.208l.512-1.536c.256-.768.533-1.365.832-1.792 2.176-3.456 4.757-5.184 7.744-5.184Z" style="fill:#fff;fill-rule:nonzero" transform="translate(7.574 18.117)"/></svg>